<svg xmlns="http://www.w3.org/2000/svg"
     width="1024" height="1024" viewBox="0 0 1024 1024" preserveAspectRatio="xMidYMid meet">
  <!-- Hintergrund in Beige -->
  <rect width="1024" height="1024" fill="#f5f0e6"/>
  <!-- Grafik in warmem Braun -->
  <g transform="translate(0,1024) scale(0.1,-0.1)" fill="#6a3d1a" stroke="none">
    <path d="M3320 7301 l0 -70 58 -11 c133 -26 223 -72 260 -132 11 -18 26 -63
31 -98 14 -86 15 -2946 1 -3153 -24 -361 -103 -558 -274 -685 -50 -37 -183
-109 -229 -125 -17 -5 74 -217 93 -217 24 0 295 94 415 145 398 167 565 402
595 840 5 77 10 626 10 1220 1 594 5 1288 9 1542 8 459 9 462 32 510 33 67
122 126 224 148 l75 17 0 69 0 69 -650 0 -650 0 0 -69z"/>
    <path d="M4900 7351 c-5 -11 -10 -42 -10 -69 l0 -50 66 -16 c86 -22 134 -47
171 -90 61 -69 58 28 58 -1652 l0 -1540 -30 -59 c-39 -76 -94 -113 -194 -128
l-71 -11 0 -83 0 -84 1210 1 c666 1 1210 4 1210 8 0 4 9 70 20 147 10 77 37
291 60 475 22 184 43 349 46 365 l5 30 -97 17 c-102 17 -114 16 -114 -8 0 -31
-90 -284 -131 -369 -95 -194 -267 -319 -517 -376 -109 -25 -584 -45 -662 -28
-59 13 -103 53 -121 112 -10 33 -14 315 -16 1350 -2 719 0 1399 6 1510 10 224
16 249 78 318 44 49 89 73 177 95 l66 16 0 57 c0 31 -5 62 -12 69 -9 9 -156
12 -600 12 -570 0 -588 -1 -598 -19z"/>
  </g>
</svg>