<svg
   viewBox="0 0 180 180"
   width="180"
   height="180"
   xmlns="http://www.w3.org/2000/svg"
   xmlns:svg="http://www.w3.org/2000/svg"
   xmlns:rdf="http://www.w3.org/1999/02/22-rdf-syntax-ns#"
   xmlns:cc="http://creativecommons.org/ns#"
   xmlns:dc="http://purl.org/dc/elements/1.1/">
     <defs
        id="defs15">
       <style
          id="style13">.cls-1{fill-rule:evenodd;}</style>
     </defs>
  <style>
path {
  fill:#f0f0f0; fill-opacity:1; stroke-width:1.46489"
}
    @media (prefers-color-scheme: dark) {
    .cls-1 { fill: #0f0f0f }
    }
  </style>
  <path
     class="cls-1"
     d="m 47.579284,29.455953 c 21.623768,-26.7074095 46.543862,-41.196509 65.252206,-17.47775 22.53211,1.18667 31.57131,36.991885 13.59544,52.066994 l -0.10258,0.893666 a 8.9659541,8.9659541 0 0 1 2.08032,-0.395556 6.4461103,6.4461108 0 0 1 3.67721,0.688561 5.2154907,5.2154896 0 0 1 2.56382,3.105854 9.405462,9.4054617 0 0 1 -0.1172,5.347341 c -0.83506,2.607745 -1.87523,5.523145 -2.8568,8.086939 a 5.7135983,5.7135983 0 0 1 -1.74338,2.812849 5.2154907,5.2154896 0 0 1 -3.80909,0.922964 l -0.77653,-0.08784 c -0.19043,8.892703 -4.52692,12.980123 -10.25518,18.327455 l -0.26364,0.24906 c 5.28874,13.18522 15.51462,16.54014 25.68187,18.23956 34.61867,5.8601 29.79863,24.27547 29.79863,42.01693 h -45.47437 a 37.797641,37.797649 0 0 1 -57.414342,4.68808 l -0.322321,-0.3516 a 36.742835,36.742831 0 0 1 -3.633249,-4.39508 H 9.4886253 c 0,-22.37094 -2.1096362,-36.75749 35.2924527,-40.80095 11.45649,-1.23062 22.898338,-4.29253 27.64503,-20.07086 -5.186201,-4.497615 -9.434766,-8.585035 -10.255186,-17.873296 h -0.483451 a 6.6951651,6.6951651 0 0 1 -3.28166,-0.864364 8.9073517,8.9073531 0 0 1 -3.603956,-4.395075 19.587383,19.587387 0 0 1 -1.465024,-6.577963 v 0 c 0,-0.703212 0,-2.036386 0,-3.310957 0,-1.274572 0.08784,-2.197538 0.175798,-2.812848 a 1.5675772,1.5675769 0 0 1 0.1464,-0.52741 c 1.157379,-3.252356 2.930042,-4.307173 5.303387,-4.233923 l -1.55292,-1.025577 C 56.559777,51.182277 59.035662,32.928063 47.60847,29.470603 Z m 44.302349,96.515857 a 5.669647,5.6696475 0 0 1 0.439505,-2.24149 5.5231439,5.523145 0 0 1 1.274573,-1.88988 6.2703081,6.2703078 0 0 1 1.875243,-1.27457 5.8601,5.8601007 0 0 1 4.395067,0 6.3289095,6.3289088 0 0 1 1.845929,1.27457 5.8601,5.8601007 0 0 1 1.24527,1.88988 5.6110475,5.6110465 0 0 1 0.39556,2.24149 5.8601,5.8601007 0 0 1 -0.41019,2.22684 6.0066035,6.0066033 0 0 1 -1.25994,1.88988 5.9333515,5.9333521 0 0 1 -1.845927,1.28922 5.435243,5.4352434 0 0 1 -2.182892,0.43951 5.6110475,5.6110465 0 0 1 -4.087415,-1.71408 5.7721981,5.7721993 0 0 1 -1.259917,-1.88988 5.8601,5.8601007 0 0 1 -0.424866,-2.24149 z m 3.267015,30.16487 -0.205111,0.80576 c -0.102521,0.67392 0,1.46502 0.820421,1.46502 a 1.8752328,1.8752322 0 0 0 1.040164,-0.45414 9.7717169,9.771718 0 0 0 1.465026,-1.46504 27.205536,27.205517 0 0 0 1.831272,-2.35868 c 0.64461,-0.90832 1.30388,-1.93384 1.99244,-3.0912 a 0.26370445,0.26370453 0 0 1 0.35162,-0.0879 l 2.35868,1.74338 a 0.26370445,0.26370453 0 0 1 0,0.35161 42.485729,42.48573 0 0 1 -3.26701,4.90784 21.975377,21.975378 0 0 1 -3.384208,3.48674 v 0 c -3.120496,2.5345 -8.892701,4.24858 -12.291543,1.21598 -2.768914,-2.49054 -1.684798,-6.53402 -0.747185,-9.59592 l 3.06191,-8.79014 c 0.512758,-1.81664 1.75803,-5.17154 -1.465028,-5.17154 h -3.164451 a 0.27835483,0.27835479 0 0 1 -0.263706,-0.26371 l 0.922977,-3.22305 a 0.24905442,0.24905428 0 0 1 0.249048,-0.19046 l 16.891726,-0.52741 a 0.26370445,0.26370453 0 0 1 0.27837,0.24906 v 0.0878 l -6.431449,20.93521 z m -1.010876,-45.84063 a 31.908245,31.908248 0 1 1 -31.908246,31.92289 31.893609,31.893598 0 0 1 31.908246,-31.89359 z"
     id="path19" />
</svg>
